<?xml version="1.0" encoding="UTF-8"?>
<svg width="100px" height="100px" viewBox="0 0 100 100" version="1.1" xmlns="http://www.w3.org/2000/svg" xmlns:xlink="http://www.w3.org/1999/xlink">
    <!-- Generator: Sketch 42 (36781) - http://www.bohemiancoding.com/sketch -->
    <title>Group</title>
    <desc>Created with Sketch.</desc>
    <defs>
        <circle id="path-1" cx="50" cy="50" r="50"></circle>
        <mask id="mask-2" maskContentUnits="userSpaceOnUse" maskUnits="objectBoundingBox" x="0" y="0" width="100" height="100" fill="white">
            <use xlink:href="#path-1"></use>
        </mask>
    </defs>
    <g id="Page-1" stroke="none" stroke-width="1" fill="none" fill-rule="evenodd">
        <g id="Artboard-Copy-3">
            <g id="Group">
                <use id="Head" stroke="#000000" mask="url(#mask-2)" stroke-width="8" xlink:href="#path-1"></use>
                <g id="Eyes" transform="translate(23.000000, 52.000000)" fill="#000000">
                    <g id="Group-2">
                        <circle id="Oval-2" cx="51" cy="4" r="4"></circle>
                        <circle id="Oval-2-Copy" cx="4" cy="4" r="4"></circle>
                    </g>
                </g>
                <g id="Hair" transform="translate(17.000000, 25.000000)" stroke="#000000" stroke-width="4">
                    <path d="M1.83086221,4.50036086 C1.83086221,10.0232084 6.30801471,14.5003609 11.8308622,14.5003609 L11.8308622,14.5003609 C17.3537097,14.5003609 21.8308622,10.0232084 21.8308622,4.50036086" id="Oval-3" stroke-linecap="round" transform="translate(11.830862, 9.500361) rotate(24.000000) translate(-11.830862, -9.500361) "></path>
                    <path d="M23,9 C23,14.5228475 27.4771525,19 33,19 L33,19 C38.5228475,19 43,14.5228475 43,9" id="Oval-3-Copy"></path>
                    <path d="M44.1691378,4.50036086 C44.1691378,10.0232084 48.6462903,14.5003609 54.1691378,14.5003609 L54.1691378,14.5003609 C59.6919853,14.5003609 64.1691378,10.0232084 64.1691378,4.50036086" id="Oval-3-Copy-2" stroke-linecap="round" transform="translate(54.169138, 9.500361) rotate(-24.000000) translate(-54.169138, -9.500361) "></path>
                </g>
                <path d="M33,68 C33,78.0676908 40.8350169,78.9375 50.5,78.9375 C60.1649831,78.9375 68,78.0676908 68,68" id="Mouth" stroke="#000000" stroke-width="4" stroke-linecap="round"></path>
            </g>
        </g>
    </g>
</svg>